<svg width="1656" height="275" viewBox="0 0 1656 275" fill="none" xmlns="http://www.w3.org/2000/svg">
<path d="M454.729 0V46.4792H400V0H454.729ZM455.125 72.0625V274.479H400V72.0625H455.125Z" fill="white"/>
<path d="M546.486 102C550.955 89.4062 558.445 80.6042 568.945 75.6042C579.179 70.6198 594.533 68.125 615.007 68.125V124.438C595.059 124.438 578.393 131.266 565.007 144.917C552.658 157 546.486 170.26 546.486 184.688V274.479H491.361V71.6667H546.486V102Z" fill="white"/>
<path d="M700.461 102C704.93 89.4062 712.419 80.6042 722.919 75.6042C733.154 70.6198 748.508 68.125 768.982 68.125V124.438C749.034 124.438 732.367 131.266 718.982 144.917C706.633 157 700.461 170.26 700.461 184.688V274.479H645.336V71.6667H700.461V102Z" fill="white"/>
<path d="M883.193 71.6666C911.276 71.4166 935.162 81.1353 954.859 100.812C974.818 120.771 984.797 144.661 984.797 172.479C985.047 200.578 975.328 224.474 955.651 244.167C935.953 264.114 912.198 274.219 884.38 274.479C856.281 274.739 832.255 265.031 812.297 245.333C792.349 225.656 782.38 201.766 782.38 173.667C782.115 145.583 791.828 121.698 811.526 102C831.203 82.0416 855.094 71.9322 883.193 71.6666ZM919.026 208.312C928.734 198.604 933.589 186.792 933.589 172.875C933.589 159.224 928.599 147.411 918.63 137.437C908.656 127.995 896.844 123.271 883.193 123.271C869.537 123.271 857.859 128.125 848.151 137.833C838.427 148.073 833.568 159.885 833.568 173.271C833.568 186.927 838.552 198.739 848.526 208.708C858.245 218.432 870.068 223.292 883.984 223.292C898.151 222.766 909.828 217.771 919.026 208.312Z" fill="white"/>
<path d="M1068.66 102C1073.13 89.4062 1080.62 80.6042 1091.12 75.6042C1101.35 70.6198 1116.71 68.125 1137.18 68.125V124.438C1117.23 124.438 1100.57 131.266 1087.18 144.917C1074.83 157 1068.66 170.26 1068.66 184.688V274.479H1013.54V71.6667H1068.66V102Z" fill="white"/>
<path d="M1440.01 18.5208V274.479H1378.59V131.146L1302.57 179.583L1228.95 131.542V274.479H1167.51V18.5208L1303.36 106.333L1440.01 18.5208Z" fill="white"/>
<path d="M1537.68 174.062V219.354H1655.04V274.479H1476.25V18.5208H1655.04V73.6458H1537.68V118.937H1637.31V174.062H1537.68Z" fill="white"/>
<path d="M272.5 18V273.958H211.083V130.625L135.063 179.063L61.4375 131.021V273.958H0V18L135.854 105.813L272.5 18Z" fill="url(#paint0_linear_82_100)"/>
<path d="M353.5 18V273.958H292.083V130.625L216.063 179.063L142.438 131.021V273.958H81V18L216.854 105.813L353.5 18Z" fill="#E9E9E9"/>
<defs>
<linearGradient id="paint0_linear_82_100" x1="0" y1="145.979" x2="272.5" y2="145.979" gradientUnits="userSpaceOnUse">
<stop stop-color="#5A5DFF"/>
<stop offset="1" stop-color="#7A00FF"/>
</linearGradient>
</defs>
</svg>
